<svg xmlns="http://www.w3.org/2000/svg" viewBox="0 0 197.5 35.75"><path fill="#ffffff" d="M108.673 12.1l-.298-.328h-8.399c-4.347.047-9.781.085-14.424 3.581-3.504 2.603-5.386 6.79-5.386 10.535 0 1.906.543 3.617 1.331 4.755 1.387 2.03 3.903 3.129 6.768 3.129 1.629 0 3.211-.324 4.694-.896 1.182-.446 1.24-.576 2.081-1.189l-.362 1.554.244.246 7.332-.162.344-.203c1.641-5.476 1.918-6.669 3.798-13.26l2.277-7.762zM96.221 27.874c-.892.614-1.928 1.303-3.757 1.303-1.182 0-3.704-.487-3.704-4.025 0-2.438 1.585-7.56 6.919-8.7 1.233-.243 2.752-.206 3.986-.163l-3.444 11.585zM192.26 4.833v3.686h.654V6.867h.231c.472.006.731.05.816.574l.094.568c.058.317.124.444.156.509h.749c-.17-.328-.206-.538-.283-1.095-.084-.499-.232-.638-.534-.769.478-.124.763-.413.763-.881a.888.888 0 0 0-.591-.848c-.226-.082-.48-.094-.859-.094h-1.196zm.664.511h.415c.435 0 .515 0 .652.048a.478.478 0 0 1 .258.434c0 .522-.53.518-.783.518h-.543v-1zm3.49 1.366c.011-1.598-1.229-2.934-2.925-2.934a2.89 2.89 0 0 0-2.906 2.929c0 1.719 1.39 2.906 2.906 2.906a2.89 2.89 0 0 0 2.925-2.901m-.261 0a2.62 2.62 0 0 1-2.657 2.639 2.638 2.638 0 0 1-2.654-2.645 2.651 2.651 0 0 1 2.663-2.668c1.516.001 2.655 1.216 2.648 2.674M12.106 26.535l-1.679 6.589-.298.243-8.395.123-.248-.243 1.677-5.653 2.275-7.892C7.167 13.565 7.661 11.61 9.292 4.9l.346-.242h12.35l8.398-.119.246.244-1.531 4.633-.393.246H16.701l-1.88 7.031 11.116-.24.248.284c-.889 2.154-1.088 2.726-1.682 4.592l-.344.246h-10.77l-1.283 4.96zm93.699 5.327l-.146-.366 1.531-4.351.442-.122c.937.85 3.062 2.643 6.864 2.643 3.804 0 4.25-1.793 4.25-2.358 0-1.386-1.631-2.032-3.36-2.688l-1.086-.446c-2.619-1.096-5.138-2.358-5.138-5.571 0-1.013.449-7.319 11.315-7.319 2.763 0 5.479.448 8.395 1.628l.199.363c-.793 2.116-.94 2.485-1.486 4.355l-.493.078c-.444-.406-.887-.852-1.483-1.177-1.233-.77-3.062-1.18-4.445-1.18-2.667 0-3.802 1.099-3.802 2.073 0 1.224 1.73 1.91 3.017 2.4l1.133.446c2.124.897 5.677 2.32 5.677 5.938 0 1.951-1.233 7.687-12.1 7.687-5.039.003-7.707-1.262-9.284-2.033m48.95-7.564c.395-1.339.642-2.724.642-4.065 0-2.442-.593-4.717-3.11-6.587-2.32-1.708-5.484-2.279-8.597-2.279-12.842 0-15.259 9.803-15.264 13.543 0 3.053 1.039 5.286 3.214 6.83 2.366 1.709 5.825 2.111 8.392 2.111 3.757 0 6.967-.649 9.781-2.556 2.619-1.752 4.15-4.314 4.942-6.997m-8.103-1.547c-.937 3.621-2.026 4.679-2.569 5.249-.839.853-2.124 1.582-3.607 1.582-1.625 0-2.962-.649-3.507-1.951-.144-.284-.294-.81-.294-1.789 0-1.87 1.035-6.506 2.917-8.497.538-.527 1.729-1.665 4.049-1.665 2.912 0 3.504 2.11 3.504 3.614.002 1.267-.245 2.443-.493 3.457m-95.53 10.653l4.052-.037h3.408c6.026-.04 11.707-.12 16.152-4.025 3.212-2.846 4.692-6.869 4.692-10.005.003-5.245-3.752-8.008-8.196-8.008-2.911 0-4.597.813-6.57 1.79l2.272-7.605 1.336-4.269-.295-.284-8.295 1.152-.351.287c-1.33 6.26-1.882 7.923-3.993 15.41l-2.432 8.32-2.028 6.994.248.28zm12.402-16.181c.986-.53 2.026-1.099 3.559-1.099 2.122 0 3.948 1.182 3.948 3.782 0 2.972-1.73 5.937-3.903 7.483-2.271 1.545-4.492 1.545-6.323 1.545l-.594-.039 3.313-11.672zM54.053 12.1l-.295-.328H45.36c-4.347.047-9.781.085-14.425 3.581-3.506 2.603-5.385 6.79-5.385 10.535 0 1.906.546 3.617 1.331 4.755 1.384 2.03 3.906 3.129 6.771 3.129 1.632 0 3.21-.324 4.692-.896 1.182-.446 1.241-.576 2.085-1.189l-.367 1.554.244.246 7.332-.162.344-.203c1.644-5.476 1.918-6.669 3.798-13.26l2.273-7.762zM41.604 27.874c-.889.614-1.928 1.303-3.754 1.303-1.184 0-3.706-.487-3.706-4.025.003-2.438 1.585-7.56 6.918-8.7 1.234-.243 2.754-.206 3.987-.163l-3.445 11.585zm145.855.9l-1.481 4.223-.393.33c-1.585.246-2.769.446-4.448.446-4.246 0-7.461-1.099-7.461-4.758.007-1.705.941-4.757 1.633-7.033l1.63-5.57-3.314.08-.271-.291 1.413-4.141.342-.202h3.12l1.429-5.245.349-.284c3.701-.692 4.689-.894 8.102-1.708l.294.243-1.088 3.376-1.088 3.699 5.041-.081.192.284c-.686 1.71-.885 2.153-1.527 4.068l-.396.282-4.547-.08-2.072 7.114c-.298.896-.94 3.168-.94 3.862 0 1.302 1.282 1.67 2.316 1.67 1.289 0 1.981-.244 2.87-.491l.295.207zm-16.096-12.322h-3.472c-.246.936-.541 1.91-.784 2.843-.745 2.724-1.735 7.2-3.264 13.785l-.396.247-7.903.163-.251-.243 1.883-6.751 2.715-10.084-3.754.08-.248-.282 1.287-4.15.444-.24 3.408.038.594-2.239c.789-3.007 1.334-4.998 2.964-6.463 2.173-1.994 5.283-2.278 7.605-2.278 1.977 0 3.261.246 4.943.53l.145.328L175.798 6l-.489.206c-.696-.121-1.389-.287-2.131-.287-2.514 0-2.862 1.302-3.799 4.515l-.349 1.463 3.875-.041.189.286-1.387 4.068-.344.242z"/></svg>