<?xml version="1.0" encoding="utf-8"?>
<!-- Generator: Adobe Illustrator 24.1.2, SVG Export Plug-In . SVG Version: 6.00 Build 0)  -->
<svg xmlns="http://www.w3.org/2000/svg" xmlns:xlink="http://www.w3.org/1999/xlink" version="1.1" id="Ebene_1" x="0px" y="0px" viewBox="0 0 674.7 178.6" style="enable-background:new 0 0 674.7 178.6;" xml:space="preserve" width="250" height="66.177560397214">
<style type="text/css">
	* {fill: #fff;}
	.st0{fill:#D03444;}
	.st1{display:none;fill:none;stroke:#000000;stroke-width:1.5;stroke-miterlimit:3.8637;}
	.st2{display:none;}
</style>
<g>
	<polygon points="0.9,123.4 32.2,123.4 32.2,21.1 0.9,21.1 0.9,123.4  "/>
	<polygon points="47.6,46.5 91.7,46.5 91.7,123.4 123.1,123.4 123.1,46.5 167.2,46.5 167.2,21.1 47.6,21.1 47.6,46.5  "/>
	<path class="st0" d="M250.6,123.4H282V97.7h62.3c22.2,0,28.8-17.5,28.8-32.8v-8.8c0-20.1-7.2-35-37-35h-85.5V123.4L250.6,123.4z    M282,46.5H328c9.5,0,12.9,4,12.9,10.9v4c0,6.1-2.8,10.9-10.2,10.9H282V46.5L282,46.5z"/>
	<path class="st0" d="M421.4,46.5h49c9.9,0,14.4,1.7,14.4,10.7v3.4c0,7.3-3.1,10.7-11.6,10.7h-51.9V46.5L421.4,46.5z M390,123.4   h31.4V96.8h49.3c9.8,0,12.9,3.5,12.9,14.3v12.3h31.4V106c0-16.8-7.8-20.9-17.1-22.6v-0.3c14.4-3.4,17.5-11.4,17.5-25.2v-6.5   c0-18.4-6.5-30.4-30.7-30.4H390V123.4L390,123.4z"/>
	<path class="st0" d="M534.3,87.5c0,30,16.8,37,45.1,37h50.3c28.3,0,45.1-7.1,45.1-37V57c0-30-16.8-37-45.1-37h-50.3   c-28.3,0-45.1,7.1-45.1,37V87.5L534.3,87.5z M566.5,66.7c0-12.7,3.1-20.5,19.6-20.5h36.7c16.5,0,19.6,7.8,19.6,20.5v11   c0,14.8-3.1,20.5-17.9,20.5h-40.1c-14.8,0-17.9-5.7-17.9-20.5V66.7L566.5,66.7z"/>
	<polygon points="200.4,0 211.5,0 211.5,143 200.4,143 200.4,0  "/>
	<path class="st1" d="M674.1,9.3c0-5.5,4.5-10,10-10c5.5,0,10,4.5,10,10c0,5.5-4.5,10-10,10C678.5,19.4,674.1,14.9,674.1,9.3   L674.1,9.3z"/>
	<path class="st2" d="M680.9,15.3v-5.2h1.8c0.4,0,0.7,0,0.9,0.1c0.2,0,0.5,0.2,0.7,0.3c0.2,0.1,0.5,0.4,0.8,0.8   c0.3,0.4,0.7,0.9,1.1,1.6l1.5,2.5h2l-2-3.2c-0.4-0.6-0.8-1.1-1.3-1.5c-0.2-0.2-0.5-0.4-0.9-0.6c1.1-0.1,2-0.5,2.5-1.1   s0.8-1.3,0.8-2.1c0-0.7-0.2-1.2-0.5-1.8c-0.3-0.5-0.8-0.9-1.3-1.1c-0.6-0.2-1.4-0.3-2.4-0.3h-5.2v11.7H680.9L680.9,15.3z    M680.9,4.9h3.7c0.9,0,1.5,0.2,1.9,0.5c0.4,0.4,0.6,0.8,0.6,1.4c0,0.4-0.1,0.7-0.3,1.1c-0.2,0.3-0.5,0.6-0.9,0.7   c-0.4,0.1-1,0.2-1.7,0.2h-3.3V4.9L680.9,4.9z"/>
	<path class="st2" d="M0.1,190.6c0,8.6,6.9,10,14.6,10h14.8c7.9,0,15.8-0.7,15.8-10.4v-2.6c0-6.7-4.4-9.7-14.7-9.7H14.8   c-8.3,0-9.8-1.6-9.8-6.3c0-6.5,3.6-7,13.9-7h5.7c14,0,14.6,1.1,14.7,7.4h5v-1.4c0-7-3.3-10.4-16.5-10.4H16.3c-11,0-16.3,2-16.3,11   c0,10.4,5.3,11.4,21.6,11.4h10.1c6.6,0,8.6,1.3,8.6,6.2c0,5.7-2.3,7.3-10,7.3H13.8c-6.6,0-8.7-1.8-8.7-5.7v-2.8h-5V190.6L0.1,190.6   z"/>
	<path class="st2" d="M56.1,210.5c9.6-0.1,11.6-1.2,14.5-6.9l15.7-31.2h-5.1l-12.1,24.5l-13.4-24.5h-5.3l15.7,28.2h1.1   c-2.4,5.6-4,6.1-11.1,6.1V210.5L56.1,210.5z"/>
	<path class="st2" d="M90.5,192.3c0,8.3,6.5,8.3,13.4,8.3h8.6c5.7,0,12.9-0.3,12.9-8.1v-0.1c0-7.5-4.8-8.2-11.8-8.2h-12.3   c-4.9,0-5.7-1.3-5.7-3.6v-1c0-3.2,1.5-3.8,8.2-3.8h8.2c5.1,0,7.9,0.1,7.9,4.4v0.3h4.4v-1.5c0-3.9-1.5-7-12-7H105   c-11.5,0-14.1,2.5-14.1,7v1.6c0,5.3,2.4,7.4,9,7.4h14.4c5.6,0,6.4,1.5,6.4,4.1v0.2c0,4.1-2.2,4.4-9.2,4.4h-10   c-4.8,0-6.6-1.4-6.6-4.8v-1.4h-4.3V192.3L90.5,192.3z"/>
	<path class="st2" d="M136.4,191.8c0,4.5,2.1,8.8,10.8,8.8h2.6c10.1,0,10.7-4.4,10.7-10v-3h-3.8v2.1c0,5.8-1,7.1-7.2,7.1h-1.5   c-5.1,0-6.9-1.6-6.9-6.7v-13.8h18.5v-3.8H141v-6.6h-4.7v6.6h-6.1v3.8h6.1V191.8L136.4,191.8z"/>
	<path class="st2" d="M196.4,183.3h-26.2c0.4-6.3,2.2-7.5,9.6-7.5h6.9c7.6,0,9.7,2.8,9.7,5.7V183.3L196.4,183.3z M165.5,189.2   c0,10.2,7,11.4,13.1,11.4h8.5c8.7,0,14-1.9,14-8.3v-0.5h-4.7c-0.3,4.2-2.7,5-8.5,5h-6.4c-8.2,0-11.2-1.6-11.2-7.9v-1.7h30.8V184   c0-9.9-6-12-14.4-12h-7.5c-6.6,0-13.6,1.1-13.6,11.2V189.2L165.5,189.2z"/>
	<path class="st2" d="M209.1,200.1h4.7v-17.4c0-4.5,2.8-7,8.8-7h4.7c7.5,0,9.1,2.2,9.1,7.6v16.8h4.7v-16.4c0-4.5,1.1-7.9,9.6-7.9   h3.3c7.5,0,8.9,3.1,8.9,6.3v18.1h4.7v-18.6c0-6.3-4.6-9.6-12.1-9.6h-5.7c-4.8,0-8.5,1.4-10.3,5.1c-1.5-3.4-4.7-5.1-9-5.1h-7.6   c-4.7,0-7.3,0.8-9.3,3.7h-0.1v-3.3h-4.4V200.1L209.1,200.1z"/>
	<path class="st2" d="M302.2,185.8c0,10,3.4,14.7,14,14.7h20.1c11,0,13.3-3.9,13.3-11v-2.7h-5v2.4c0,5.3-2.1,6.9-9.2,6.9h-18.7   c-5.1,0-9.2-1.5-9.2-8.4v-14.8c0-6.9,4.1-8.4,9.2-8.4h18.5c4.9,0,9,0.3,9,7v1.8h4.7v-3.4c0-5.3-2.7-9.8-12.3-9.8h-20.4   c-10.7,0-14,4.8-14,14.7V185.8L302.2,185.8z"/>
	<path class="st2" d="M357.2,189.3c0,9.1,6.5,11.3,15.3,11.3h6.7c8.9,0,15.3-2.1,15.3-11.3v-6.1c0-9.1-6.5-11.3-15.3-11.3h-6.7   c-8.9,0-15.3,2.1-15.3,11.3V189.3L357.2,189.3z M389.9,189c0,6.5-3.8,7.7-9.2,7.7h-9.5c-5.4,0-9.2-1.3-9.2-7.7v-5.5   c0-6.5,3.8-7.7,9.2-7.7h9.5c5.4,0,9.2,1.3,9.2,7.7V189L389.9,189z"/>
	<path class="st2" d="M403.2,200.1h4.7v-15.8c0-6.5,2.5-8.6,13.4-8.6h1.2c9.1,0,10.2,2.7,10.2,6.7v17.6h4.7v-18.8   c0-5-2.8-9.4-11.5-9.4h-7c-5.8,0-9.5,0.9-11.2,5.2h-0.1v-4.8h-4.4V200.1L403.2,200.1z"/>
	<path class="st2" d="M445.9,192.3c0,8.3,6.5,8.3,13.4,8.3h8.6c5.7,0,12.9-0.3,12.9-8.1v-0.1c0-7.5-4.8-8.2-11.8-8.2h-12.3   c-4.9,0-5.7-1.3-5.7-3.6v-1c0-3.2,1.5-3.8,8.2-3.8h8.2c5.1,0,7.9,0.1,7.9,4.4v0.3h4.4v-1.5c0-3.9-1.5-7-12-7h-7.2   c-11.5,0-14.1,2.5-14.1,7v1.6c0,5.3,2.4,7.4,9,7.4h14.4c5.6,0,6.4,1.5,6.4,4.1v0.2c0,4.1-2.2,4.4-9.2,4.4h-10   c-4.8,0-6.6-1.4-6.6-4.8v-1.4h-4.4V192.3L445.9,192.3z"/>
	<path class="st2" d="M519,200.1h4.4v-27.7h-4.7v15.8c0,6.5-2.5,8.6-13.4,8.6h-1.2c-9.1,0-10.2-2.7-10.2-6.7v-17.6h-4.7v18.8   c0,5,2.8,9.4,11.5,9.4h7c5.8,0,9.5-0.9,11.2-5.2h0.1V200.1L519,200.1z"/>
	<polygon class="st2" points="533.5,200.1 538.2,200.1 538.2,160.8 533.5,160.8 533.5,200.1  "/>
	<path class="st2" d="M550.9,191.8c0,4.5,2.1,8.8,10.8,8.8h2.6c10.1,0,10.7-4.4,10.7-10v-3h-3.8v2.1c0,5.8-1,7.1-7.2,7.1h-1.5   c-5.1,0-6.9-1.6-6.9-6.7v-13.8h18.5v-3.8h-18.5v-6.6h-4.7v6.6h-6.1v3.8h6.1V191.8L550.9,191.8z"/>
	<path class="st2" d="M582,200.1h4.7v-27.7H582V200.1L582,200.1z M582,165.9h4.7v-5.1H582V165.9L582,165.9z"/>
	<path class="st2" d="M596.8,200.1h4.7v-15.8c0-6.5,2.5-8.6,13.4-8.6h1.2c9.1,0,10.2,2.7,10.2,6.7v17.6h4.7v-18.8   c0-5-2.8-9.4-11.5-9.4h-7c-5.8,0-9.5,0.9-11.2,5.2h-0.1v-4.8h-4.4V200.1L596.8,200.1z"/>
	<path class="st2" d="M670,187.6c0,4.8-2.4,7.5-9.1,7.5h-9c-5.7,0-8-2-7.9-8.3v-5.1c0.1-4.6,3.5-5.9,8.3-5.9h9.5   c6.6,0,8.4,3.3,8.3,8.5V187.6L670,187.6z M674.7,172.4h-4.4v4.9h-0.1c-1.5-4.5-5-5.4-8.5-5.4h-10c-5.2,0-12.5,1.1-12.5,11.2v4.6   c0,7.1,3.9,11.1,11.6,11.1h9.6c6.5,0,8.4-1.7,9.4-4.3h0.1v4.1c0,7.5-3.7,7.6-12.9,7.6h-4.6c-4.4,0-8-1-8-4.6V201h-4.4v0.9   c0,3.5,2.3,8.3,10.9,8.3h10.5c5.8,0,13.2-1.7,13.2-10.1V172.4L674.7,172.4z"/>
</g>
<g>
	<path d="M2.7,170.4h3.1v1.7c0,2.4,1.3,3.6,5.4,3.6h10.3c4.8,0,6.3-1,6.3-4.6c0-3.1-1.2-3.9-5.4-3.9h-6.3c-10.2,0-13.5-0.6-13.5-7.1   c0-5.6,3.3-6.9,10.2-6.9H20c8.3,0,10.3,2.1,10.3,6.5v0.9h-3.1c-0.1-3.9-0.5-4.6-9.2-4.6h-3.5c-6.4,0-8.7,0.3-8.7,4.4   c0,2.9,0.9,3.9,6.1,3.9h9.9c6.5,0,9.2,1.9,9.2,6.1v1.6c0,6.1-5,6.5-9.9,6.5h-9.2c-4.9,0-9.1-0.9-9.1-6.2V170.4z"/>
	<path d="M35.7,167.6c0-5.7,4-7,9.6-7h4.2c5.5,0,9.6,1.3,9.6,7v3.8c0,5.7-4,7-9.6,7h-4.2c-5.5,0-9.6-1.3-9.6-7V167.6z M56.2,167.8   c0-4-2.4-4.8-5.8-4.8h-5.9c-3.4,0-5.8,0.8-5.8,4.8v3.5c0,4,2.4,4.8,5.8,4.8h5.9c3.4,0,5.8-0.8,5.8-4.8V167.8z"/>
	<path d="M66,163.2h-3.8v-2.4H66v-1.5c0-4.1,2.5-5.7,5.7-5.7h5.5v2.4h-5.2c-2.2,0-3,1.2-3,2.8v2.1h8.3v2.4h-8.3v15H66V163.2z"/>
	<path d="M82.4,163.2h-3.8v-2.4h3.8v-4.1h2.9v4.1h11.6v2.4H85.3v8.6c0,3.2,1.1,4.2,4.3,4.2h0.9c3.9,0,4.5-0.8,4.5-4.5v-1.3h2.4v1.9   c0,3.5-0.3,6.2-6.7,6.2h-1.6c-5.5,0-6.8-2.7-6.8-5.5V163.2z"/>
	<path d="M98.5,160.9h3.1l6.8,15l5.5-15h4.2l5.5,15l6.8-15h3.1l-7.9,17.3h-4l-5.5-15l-5.5,15h-4L98.5,160.9z"/>
	<path d="M154.3,176.5L154.3,176.5c-0.9,1.6-1.8,2-6.3,2h-7c-4.4,0-5.6-1.9-5.6-5.2v-1.2c0-3.9,2.8-4.4,7.9-4.4h4.7   c3.8,0,5.2,0.4,6.2,2.1h0.1v-3.3c0-3.1-2-3.5-6.5-3.5h-4.3c-3.7,0-4.4,0.9-4.4,2.3v0.6h-2.9V165c0-3.2,2-4.5,7.2-4.5h4.6   c5.4,0,9.1,0.8,9.1,6v11.6h-2.9V176.5z M154.3,172.8c0-2.4-2.1-2.7-6.6-2.7h-4.5c-3.8,0-4.8,0.5-4.8,2.7v0.5c0,1.9,0.7,2.8,4.7,2.8   h3.9c5.3,0,7.3-0.4,7.3-2.5V172.8z"/>
	<path d="M162.7,160.9h2.7v2.5h0.1c1.1-2.2,3.3-2.8,5.3-2.8h2.8c5.5,0,7.3,1.8,7.3,6v2.1h-2.7v-0.7c0-4.3-0.9-5-6.1-5h-1.8   c-3.1,0-4.6,2-4.6,4.2v11h-2.9V160.9z"/>
	<path d="M183.5,167.6c0-6.3,4.4-7,8.5-7h4.7c5.2,0,9,1.3,9,7.5v1.9h-19.3v1.1c0,3.9,1.9,5,7,5h4c3.7,0,5.2-0.5,5.3-3.1h2.9v0.3   c0,4-3.3,5.2-8.7,5.2h-5.3c-3.8,0-8.2-0.7-8.2-7.1V167.6z M202.7,166.5c0-1.8-1.3-3.5-6.1-3.5h-4.3c-4.6,0-5.7,0.7-6,4.7h16.4   V166.5z"/>
	<path d="M251.8,178.2h-2.7v-2.8H249c-0.8,2.1-3.2,3-6.3,3h-4.1c-5.3,0-9-1.3-9-7.3v-3.1c0-5.5,2.1-7.5,9.2-7.5h4.5   c3.3,0,4.9,0.8,5.5,2.6h0.1v-9.6h2.9V178.2z M232.5,171.1c0,3.4,1.1,5,5.8,5h4.8c4.4,0,5.7-1.8,5.7-5v-3.3c0-4.1-2.4-4.8-6.4-4.8   h-3.9c-4,0-6,0.7-6,4.8V171.1z"/>
	<path d="M257.7,153.6h2.9v3.2h-2.9V153.6z M257.7,160.9h2.9v17.3h-2.9V160.9z"/>
	<path d="M265.7,167.6c0-6.3,4.4-7,8.5-7h4.7c5.2,0,9,1.3,9,7.5v1.9h-19.3v1.1c0,3.9,1.9,5,7,5h4c3.7,0,5.2-0.5,5.3-3.1h2.9v0.3   c0,4-3.3,5.2-8.7,5.2h-5.3c-3.8,0-8.2-0.7-8.2-7.1V167.6z M285,166.5c0-1.8-1.3-3.5-6.1-3.5h-4.3c-4.6,0-5.7,0.7-6,4.7H285V166.5z"/>
	<path d="M292.5,157.6c0-2.4,0.5-4,3.8-4v2c-1.2,0-1.5,0.4-1.5,1.8h1.3v4.4h-3.6V157.6z"/>
	<path d="M301.1,172.2h2.7v0.8c0,2.1,1.1,3,4.1,3h6.3c4.4,0,5.8-0.2,5.8-2.8v-0.1c0-1.7-0.5-2.6-4-2.6h-9c-4.1,0-5.6-1.3-5.6-4.6v-1   c0-2.8,1.6-4.4,8.8-4.4h4.5c6.6,0,7.5,1.9,7.5,4.4v0.9h-2.7v-0.2c0-2.7-1.8-2.7-5-2.7h-5.1c-4.2,0-5.1,0.4-5.1,2.4v0.6   c0,1.4,0.5,2.2,3.5,2.2h7.7c4.4,0,7.4,0.4,7.4,5.1v0.1c0,4.9-4.5,5-8.1,5h-5.4c-4.3,0-8.4,0-8.4-5.2V172.2z"/>
	<path d="M347.2,167.6c0-6.3,4.4-7,8.5-7h4.7c5.2,0,9,1.3,9,7.5v1.9h-19.3v1.1c0,3.9,1.9,5,7,5h4c3.7,0,5.2-0.5,5.3-3.1h2.9v0.3   c0,4-3.3,5.2-8.7,5.2h-5.3c-3.8,0-8.2-0.7-8.2-7.1V167.6z M366.4,166.5c0-1.8-1.3-3.5-6.1-3.5h-4.3c-4.6,0-5.7,0.7-6,4.7h16.4   V166.5z"/>
	<path d="M374.4,153.6h2.9v3.2h-2.9V153.6z M374.4,160.9h2.9v17.3h-2.9V160.9z"/>
	<path d="M383.2,160.9h2.7v3h0.1c1.1-2.7,3.4-3.3,7-3.3h4.4c5.5,0,7.2,2.8,7.2,5.9v11.7h-2.9v-11c0-2.5-0.7-4.2-6.4-4.2h-0.7   c-6.8,0-8.4,1.3-8.4,5.4v9.9h-2.9V160.9z"/>
	<path d="M412.1,163.2h-3.8v-2.4h3.8v-1.5c0-4.1,2.5-5.7,5.7-5.7h5.5v2.4H418c-2.2,0-3,1.2-3,2.8v2.1h8.3v2.4H415v15h-2.9V163.2z"/>
	<path d="M444.8,176.5L444.8,176.5c-0.8,1.6-1.8,2-6.3,2h-7c-4.4,0-5.6-1.9-5.6-5.2v-1.2c0-3.9,2.8-4.4,7.9-4.4h4.7   c3.8,0,5.2,0.4,6.2,2.1h0.1v-3.3c0-3.1-2-3.5-6.5-3.5h-4.3c-3.7,0-4.4,0.9-4.4,2.3v0.6h-2.9V165c0-3.2,2-4.5,7.2-4.5h4.6   c5.4,0,9.1,0.8,9.1,6v11.6h-2.9V176.5z M444.8,172.8c0-2.4-2.1-2.7-6.6-2.7h-4.5c-3.8,0-4.8,0.5-4.8,2.7v0.5c0,1.9,0.7,2.8,4.7,2.8   h3.9c5.3,0,7.3-0.4,7.3-2.5V172.8z"/>
	<path d="M452.1,167.6c0-6.3,4.4-7,8.7-7h4.9c5.4,0,7.6,2.2,7.6,5.9v0.5h-2.7v-0.4c0-2.9-1.9-3.6-4.8-3.6h-5.4   c-2.8,0-5.3,0.4-5.3,4.7v3.6c0,3.9,2.4,4.8,5.9,4.8h4.9c2.7,0,5-0.8,5-3.6v-0.6h2.7v0.5c0,4.4-2.2,6.1-7.6,6.1h-6.6   c-2.6,0-7.3-0.7-7.3-7V167.6z"/>
	<path d="M478.1,153.6h2.9v10.3h0.1c1.1-2.7,3.4-3.3,7-3.3h4.2c5.5,0,7.2,2.8,7.2,5.9v11.7h-2.9v-11c0-2.5-0.7-4.2-6.4-4.2h-0.7   c-6.8,0-8.4,1.3-8.4,5.4v9.9h-2.9V153.6z"/>
	<path d="M525.1,160.9h2.7v2h0.1c1.2-1.8,2.9-2.3,5.8-2.3h4.7c2.7,0,4.7,1.1,5.6,3.2c1.1-2.3,3.4-3.2,6.4-3.2h3.5c4.7,0,7.6,2,7.6,6   v11.6h-2.9v-11.3c0-2-0.9-3.9-5.5-3.9h-2.1c-5.3,0-6,2.2-6,5v10.3h-2.9v-10.5c0-3.4-1.1-4.7-5.7-4.7h-2.9c-3.7,0-5.5,1.6-5.5,4.4   v10.9h-2.9V160.9z"/>
	<path d="M585,176.5L585,176.5c-0.8,1.6-1.8,2-6.3,2h-7c-4.4,0-5.6-1.9-5.6-5.2v-1.2c0-3.9,2.8-4.4,7.9-4.4h4.7   c3.8,0,5.2,0.4,6.2,2.1h0.1v-3.3c0-3.1-2-3.5-6.5-3.5h-4.3c-3.7,0-4.4,0.9-4.4,2.3v0.6H567V165c0-3.2,2-4.5,7.2-4.5h4.6   c5.4,0,9.1,0.8,9.1,6v11.6H585V176.5z M585,172.8c0-2.4-2.1-2.7-6.6-2.7h-4.5c-3.8,0-4.8,0.5-4.8,2.7v0.5c0,1.9,0.7,2.8,4.7,2.8   h3.9c5.3,0,7.3-0.4,7.3-2.5V172.8z"/>
	<path d="M592.3,167.6c0-6.3,4.4-7,8.7-7h4.9c5.4,0,7.6,2.2,7.6,5.9v0.5h-2.7v-0.4c0-2.9-1.9-3.6-4.8-3.6h-5.4   c-2.8,0-5.3,0.4-5.3,4.7v3.6c0,3.9,2.4,4.8,5.9,4.8h4.9c2.7,0,5-0.8,5-3.6v-0.6h2.7v0.5c0,4.4-2.2,6.1-7.6,6.1h-6.6   c-2.6,0-7.3-0.7-7.3-7V167.6z"/>
	<path d="M618.3,153.6h2.9v10.3h0.1c1.1-2.7,3.4-3.3,7-3.3h4.2c5.5,0,7.2,2.8,7.2,5.9v11.7h-2.9v-11c0-2.5-0.7-4.2-6.4-4.2h-0.7   c-6.8,0-8.4,1.3-8.4,5.4v9.9h-2.9V153.6z"/>
	<path d="M646.8,163.2H643v-2.4h3.8v-4.1h2.9v4.1h11.6v2.4h-11.6v8.6c0,3.2,1.1,4.2,4.3,4.2h0.9c3.9,0,4.5-0.8,4.5-4.5v-1.3h2.4v1.9   c0,3.5-0.3,6.2-6.7,6.2h-1.6c-5.5,0-6.8-2.7-6.8-5.5V163.2z"/>
	<path d="M668.9,174h3.8v4.2h-3.8V174z"/>
</g>
</svg>
