<?xml version="1.0" encoding="windows-1252"?>
<!-- Generator: Adobe Illustrator 15.1.0, SVG Export Plug-In . SVG Version: 6.00 Build 0)  -->
<!DOCTYPE svg PUBLIC "-//W3C//DTD SVG 1.1//EN" "http://www.w3.org/Graphics/SVG/1.1/DTD/svg11.dtd">
<svg version="1.1" id="Ebene_1" xmlns="http://www.w3.org/2000/svg" xmlns:xlink="http://www.w3.org/1999/xlink" x="0px" y="0px" width="173.353px" height="44.987px" viewBox="0 0 173.353 44.987" style="enable-background:new 0 0 173.353 44.987;" xml:space="preserve">
<g>
	<defs>
		<rect id="SVGID_1_" x="-198.425" y="-362.888" width="595.28" height="841.89"/>
	</defs>
	<clipPath id="SVGID_2_">
		<use xlink:href="#SVGID_1_" style="overflow:visible;"/>
	</clipPath>
	<path style="clip-path:url(#SVGID_2_);fill:#00497B;" d="M0,38.753c0-4.297,1.573-6.233,4.604-6.233   c3.03,0,4.603,1.936,4.603,6.233c0,4.296-1.573,6.233-4.603,6.233C1.573,44.986,0,43.05,0,38.753 M1.88,38.753   c0,3.529,1.017,4.699,2.724,4.699s2.723-1.17,2.723-4.699c0-3.529-1.016-4.681-2.723-4.681S1.88,35.225,1.88,38.753"/>
	<path style="clip-path:url(#SVGID_2_);fill:#00497B;" d="M15.228,44.986c-1.094,0-1.957-0.575-2.494-1.208v0.307   c0,0.479-0.249,0.806-0.882,0.806h-0.844V33.152c0-0.537,0.173-0.921,0.787-0.921h0.939v4.182c0.537-0.634,1.4-1.209,2.494-1.209   c2.263,0,3.318,1.86,3.318,4.892C18.546,43.126,17.491,44.986,15.228,44.986 M14.652,36.585c-0.748,0-1.419,0.346-1.918,0.806   v5.371c0.499,0.46,1.17,0.805,1.918,0.805c1.496,0,2.11-1.227,2.11-3.471C16.762,37.853,16.148,36.585,14.652,36.585"/>
	<path style="clip-path:url(#SVGID_2_);fill:#00497B;" d="M27.001,43.624v0.442c0,0.748-1.016,0.921-3.126,0.921   c-2.992,0-3.912-2.206-3.912-4.891s0.978-4.892,3.893-4.892c2.359,0,3.587,1.458,3.587,3.568c0,0.441,0,0.845-0.096,1.764h-5.582   c0,2.226,0.748,3.088,2.302,3.088H27.001z M25.679,39.348c0.02-0.173,0.02-0.557,0.02-0.787c0-0.92-0.366-2.071-1.823-2.071   c-1.323,0-2.033,0.843-2.11,2.858H25.679z"/>
	<path style="clip-path:url(#SVGID_2_);fill:#00497B;" d="M29.264,44.891V35.3h0.863c0.575,0,0.824,0.461,0.863,1.19   c0.748-0.997,1.746-1.286,2.474-1.286c0.326,0,0.671,0.078,0.671,0.48v1.228h-0.479c-1.4,0-2.11,0.345-2.666,0.805v7.174H29.264z"/>
	<path style="clip-path:url(#SVGID_2_);fill:#00497B;" d="M34.557,40.096c0-2.685,0.882-4.891,3.894-4.891   c3.03,0,3.893,2.206,3.893,4.891s-0.863,4.891-3.893,4.891C35.438,44.987,34.557,42.781,34.557,40.096 M37.605,34.227h-1.515   v-1.094c0-0.575,0.211-0.901,0.786-0.901h0.729V34.227z M40.56,40.096c0-2.359-0.46-3.606-2.109-3.606   c-1.631,0-2.111,1.247-2.111,3.606s0.48,3.606,2.111,3.606C40.1,43.702,40.56,42.455,40.56,40.096 M40.848,34.227h-1.496v-1.094   c0-0.575,0.191-0.901,0.767-0.901h0.729V34.227z"/>
	<path style="clip-path:url(#SVGID_2_);fill:#00497B;" d="M46.964,35.205c1.688,0,2.839,0.039,2.839,0.883v0.498h-2.897   c-0.862,0-1.419,0.384-1.419,0.998c0,1.994,4.833,1.419,4.833,4.642c0,1.572-1.035,2.761-3.74,2.761c-1.572,0-3.03,0-3.03-0.825   v-0.537h3.223c1.15,0,1.687-0.402,1.687-1.266c0-1.822-4.814-1.457-4.814-4.679C43.646,36.145,44.893,35.205,46.964,35.205"/>
	<path style="clip-path:url(#SVGID_2_);fill:#00497B;" d="M53.906,35.3h2.071v1.285h-2.071v5.851c0,0.824,0.096,1.132,0.709,1.132   h1.362v0.44c0,0.748-0.69,0.921-1.649,0.921c-1.956,0-2.149-1.074-2.149-2.493v-5.851h-1.208v-0.959l1.208-0.326l0.615-1.534   c0.191-0.403,0.326-0.575,0.671-0.575h0.441V35.3z"/>
	<path style="clip-path:url(#SVGID_2_);fill:#00497B;" d="M63.744,43.624v0.442c0,0.748-1.016,0.921-3.126,0.921   c-2.992,0-3.913-2.206-3.913-4.891s0.979-4.892,3.894-4.892c2.359,0,3.587,1.458,3.587,3.568c0,0.441,0,0.845-0.096,1.764h-5.582   c0,2.226,0.748,3.088,2.302,3.088H63.744z M62.421,39.348c0.02-0.173,0.02-0.557,0.02-0.787c0-0.92-0.366-2.071-1.823-2.071   c-1.324,0-2.033,0.843-2.11,2.858H62.421z"/>
	<path style="clip-path:url(#SVGID_2_);fill:#00497B;" d="M66.006,44.891V35.3h0.863c0.575,0,0.825,0.461,0.864,1.19   c0.748-0.997,1.745-1.286,2.474-1.286c0.325,0,0.671,0.078,0.671,0.48v1.228h-0.479c-1.401,0-2.111,0.345-2.666,0.805v7.174H66.006   z"/>
	<path style="clip-path:url(#SVGID_2_);fill:#00497B;" d="M71.874,44.891V35.3h0.863c0.575,0,0.824,0.461,0.863,1.19   c0.748-0.997,1.746-1.286,2.474-1.286c0.326,0,0.671,0.078,0.671,0.48v1.228h-0.479c-1.4,0-2.11,0.345-2.666,0.805v7.174H71.874z"/>
	<path style="clip-path:url(#SVGID_2_);fill:#00497B;" d="M84.206,43.624v0.442c0,0.748-1.016,0.921-3.127,0.921   c-2.992,0-3.912-2.206-3.912-4.891s0.978-4.892,3.894-4.892c2.358,0,3.586,1.458,3.586,3.568c0,0.441,0,0.845-0.096,1.764H78.97   c0,2.226,0.748,3.088,2.302,3.088H84.206z M82.882,39.348c0.02-0.173,0.02-0.557,0.02-0.787c0-0.92-0.365-2.071-1.823-2.071   c-1.323,0-2.033,0.843-2.109,2.858H82.882z"/>
	<path style="clip-path:url(#SVGID_2_);fill:#00497B;" d="M88.136,34.228H86.41v-1.094c0-0.575,0.211-0.901,0.786-0.901h0.94V34.228   z M86.41,35.3h0.92c0.595,0,0.806,0.326,0.806,0.902v8.689H86.41V35.3z"/>
	<path style="clip-path:url(#SVGID_2_);fill:#00497B;" d="M93.852,35.205c1.994,0,2.78,0.173,2.78,0.921v0.46h-2.608   c-1.63,0-2.282,0.901-2.282,3.511c0,2.608,0.652,3.528,2.282,3.528h2.608v0.441c0,0.748-0.786,0.921-2.78,0.921   c-3.05,0-3.894-2.206-3.894-4.89C89.958,37.411,90.801,35.205,93.852,35.205"/>
	<path style="clip-path:url(#SVGID_2_);fill:#00497B;" d="M99.872,36.414c0.787-0.883,1.766-1.209,2.666-1.209   c1.881,0,2.802,1.151,2.802,2.935v6.752h-1.707v-6.675c0-1.132-0.671-1.612-1.766-1.612c-0.71,0-1.458,0.346-1.995,0.806v7.481   h-1.726V33.153c0-0.594,0.211-0.921,0.787-0.921h0.938V36.414z"/>
	<path style="clip-path:url(#SVGID_2_);fill:#00497B;" d="M6.572,8.479c4.065,0,6.174,0.458,6.174,2.353v1.925H7.182   c-1.497,0-1.925,0.399-1.925,1.193c0,2.354,8.498,1.864,8.498,8.466c0,3.149-1.803,5.931-7.306,5.931   C2.843,28.347,0,27.765,0,25.993v-1.925h6.572c1.345,0,1.987-0.429,1.987-1.377c0-2.567-8.467-2.078-8.467-8.863   C0.092,10.832,2.079,8.479,6.572,8.479 M15.744,10.373c0-1.161,0.519-1.741,1.681-1.741h6.358c4.462,0,7.09,1.957,7.09,5.96   c0,3.882-2.628,5.654-7.09,5.654h-3.148v7.947h-4.891V10.373z M20.635,12.756v3.516h2.78c1.621,0,2.568-0.336,2.568-1.773   c0-1.405-0.947-1.743-2.568-1.743H20.635z M40.718,8.569c0.825,0,1.223,0.093,1.406,0.795l4.554,18.064   c0.062,0.276,0.092,0.55,0.092,0.764h-4.004c-0.825,0-1.069-0.061-1.223-0.733l-0.947-3.912h-4.554l-0.886,3.912   c-0.153,0.672-0.398,0.733-1.223,0.733H29.96c0-0.214,0.03-0.458,0.091-0.764l4.554-18.064c0.183-0.702,0.581-0.795,1.406-0.795   H40.718z M36.775,19.879h3.026l-1.467-6.266h-0.122L36.775,19.879z M48.455,10.373c0-1.161,0.519-1.741,1.681-1.741h6.358   c4.461,0,7.029,2.047,7.029,5.898c0,2.661-1.009,4.371-3.423,5.35l3.821,7.458c0.122,0.274,0.275,0.549,0.275,0.855h-4.218   c-0.887,0-1.254,0-1.681-0.886l-3.424-7.061h-1.527v7.947h-4.891V10.373z M53.346,12.756v3.516h2.781   c1.406,0,2.506-0.185,2.506-1.743c0-1.528-1.1-1.773-2.506-1.773H53.346z M70.617,17.587l4.891-8.07   c0.459-0.794,0.733-0.886,1.374-0.886h4.586c0,0.305-0.061,0.55-0.244,0.855l-5.625,8.588l5.899,9.263   c0.153,0.244,0.275,0.549,0.275,0.855h-4.432c-0.916,0-1.191-0.061-1.711-0.886l-5.013-8.039v8.925h-4.89v-17.82   c0-1.161,0.519-1.741,1.681-1.741h3.209V17.587z M93.605,8.569c0.825,0,1.223,0.093,1.405,0.795l4.555,18.064   c0.062,0.276,0.092,0.55,0.092,0.764h-4.004c-0.824,0-1.069-0.061-1.222-0.733l-0.947-3.912h-4.555l-0.885,3.912   c-0.154,0.672-0.398,0.733-1.223,0.733h-3.973c0-0.214,0.029-0.458,0.091-0.764l4.553-18.064c0.184-0.702,0.582-0.795,1.407-0.795   H93.605z M89.662,19.879h3.026l-1.467-6.266h-0.122L89.662,19.879z M107.301,8.479c4.066,0,6.174,0.458,6.174,2.353v1.925h-5.563   c-1.497,0-1.926,0.399-1.926,1.193c0,2.354,8.497,1.864,8.497,8.466c0,3.149-1.803,5.931-7.305,5.931   c-3.607,0-6.45-0.582-6.45-2.354v-1.925h6.572c1.345,0,1.987-0.429,1.987-1.377c0-2.567-8.468-2.078-8.468-8.863   C100.821,10.832,102.808,8.479,107.301,8.479 M122.433,8.479c4.066,0,6.175,0.458,6.175,2.353v1.925h-5.563   c-1.498,0-1.925,0.399-1.925,1.193c0,2.354,8.495,1.864,8.495,8.466c0,3.149-1.803,5.931-7.305,5.931   c-3.606,0-6.449-0.582-6.449-2.354v-1.925h6.571c1.345,0,1.987-0.429,1.987-1.377c0-2.567-8.467-2.078-8.467-8.863   C115.954,10.832,117.94,8.479,122.433,8.479 M131.607,10.373c0-1.161,0.52-1.741,1.682-1.741h10.696v2.414   c0,1.161-0.581,1.711-1.742,1.711h-5.745v3.516h6.419v3.973h-6.419v3.822h7.642v2.413c0,1.163-0.582,1.712-1.743,1.712h-9.107   c-1.162,0-1.682-0.581-1.682-1.742V10.373z M6.572,8.479c4.065,0,6.174,0.458,6.174,2.353v1.925H7.182   c-1.497,0-1.925,0.399-1.925,1.193c0,2.354,8.498,1.864,8.498,8.466c0,3.149-1.803,5.931-7.306,5.931   C2.842,28.347,0,27.765,0,25.993v-1.925h6.572c1.345,0,1.987-0.429,1.987-1.377c0-2.567-8.467-2.078-8.467-8.863   C0.092,10.832,2.079,8.479,6.572,8.479 M15.744,10.373c0-1.161,0.519-1.741,1.682-1.741h6.357c4.463,0,7.091,1.957,7.091,5.96   c0,3.882-2.628,5.654-7.091,5.654h-3.148v7.947h-4.891V10.373z M20.635,12.756v3.516h2.781c1.62,0,2.567-0.336,2.567-1.773   c0-1.405-0.947-1.743-2.567-1.743H20.635z M40.719,8.569c0.825,0,1.223,0.093,1.406,0.795l4.554,18.064   c0.061,0.276,0.092,0.55,0.092,0.764h-4.005c-0.824,0-1.068-0.061-1.222-0.733l-0.947-3.912h-4.554l-0.886,3.912   c-0.154,0.672-0.398,0.733-1.223,0.733H29.96c0-0.214,0.03-0.458,0.092-0.764l4.553-18.064c0.184-0.702,0.582-0.795,1.407-0.795   H40.719z M36.776,19.879h3.026l-1.467-6.266h-0.122L36.776,19.879z M48.455,10.373c0-1.161,0.52-1.741,1.682-1.741h6.358   c4.461,0,7.029,2.047,7.029,5.898c0,2.661-1.009,4.371-3.423,5.35l3.821,7.458c0.122,0.274,0.275,0.549,0.275,0.855h-4.218   c-0.887,0-1.253,0-1.681-0.886l-3.424-7.061h-1.527v7.947h-4.892V10.373z M53.347,12.756v3.516h2.781   c1.406,0,2.506-0.185,2.506-1.743c0-1.528-1.1-1.773-2.506-1.773H53.347z M70.618,17.587l4.892-8.07   c0.458-0.794,0.732-0.886,1.374-0.886h4.586c0,0.305-0.062,0.55-0.245,0.855L75.6,18.075l5.9,9.263   c0.152,0.244,0.275,0.549,0.275,0.855h-4.433c-0.916,0-1.19-0.061-1.71-0.886l-5.014-8.039v8.925h-4.89v-17.82   c0-1.161,0.519-1.741,1.681-1.741h3.209V17.587z M93.607,8.569c0.825,0,1.223,0.093,1.405,0.795l4.555,18.064   c0.062,0.276,0.092,0.55,0.092,0.764h-4.004c-0.824,0-1.069-0.061-1.222-0.733l-0.947-3.912H88.93l-0.886,3.912   c-0.153,0.672-0.398,0.733-1.223,0.733h-3.973c0-0.214,0.03-0.458,0.091-0.764l4.554-18.064c0.183-0.702,0.581-0.795,1.406-0.795   H93.607z M89.663,19.879h3.026l-1.467-6.266H91.1L89.663,19.879z M107.181,28.347c-3.607,0-6.45-0.582-6.45-2.354v-1.925h6.572   c1.345,0,1.987-0.429,1.987-1.377c0-2.567-8.468-2.078-8.468-8.863c0-2.996,1.987-5.349,6.48-5.349   c4.066,0,6.174,0.458,6.174,2.353v1.925h-5.563c-1.497,0-1.926,0.399-1.926,1.193c0,2.354,8.497,1.864,8.497,8.466 M122.435,8.479   c4.066,0,6.175,0.458,6.175,2.353v1.925h-5.563c-1.497,0-1.925,0.399-1.925,1.193c0,2.354,8.497,1.864,8.497,8.466   c0,3.149-1.804,5.931-7.307,5.931c-3.606,0-6.449-0.582-6.449-2.354v-1.925h6.571c1.346,0,1.987-0.429,1.987-1.377   c0-2.567-8.467-2.078-8.467-8.863C115.956,10.832,117.942,8.479,122.435,8.479 M131.609,10.373c0-1.161,0.52-1.741,1.682-1.741   h10.697v2.414c0,1.161-0.581,1.711-1.741,1.711H136.5v3.516h6.419v3.973H136.5v3.822h7.642v2.413c0,1.163-0.581,1.712-1.742,1.712   h-9.108c-1.162,0-1.682-0.581-1.682-1.742V10.373z"/>
	<path style="clip-path:url(#SVGID_2_);fill:#E30613;" d="M161.347,0c0.976,0,1.831,0.364,2.542,1.09   c0.712,0.721,1.074,1.602,1.074,2.597c0,1.02-0.354,1.888-1.064,2.61c-0.713,0.724-1.576,1.087-2.552,1.087   c-0.996,0-1.854-0.363-2.552-1.087c-0.709-0.722-1.063-1.59-1.063-2.61c0-0.995,0.354-1.868,1.054-2.588   C159.494,0.371,160.351,0,161.347,0 M173.353,14.625v-2.241c0-2.12-1.72-3.846-3.841-3.846h-16.331   c-2.123,0-3.842,1.726-3.842,3.846v8.445h18.218v1.281h-18.218v2.242c0,2.121,1.719,3.84,3.842,3.84h16.331   c2.121,0,3.841-1.719,3.841-3.84v-8.446h-18.216v-1.281H173.353z"/>
</g>
</svg>