<svg id="Vordergrund" xmlns="http://www.w3.org/2000/svg" viewBox="0 0 726.38 84.06" transform="scale(0.8)"><defs><style>.cls-1,.cls-3{fill:#666}.cls-1,.cls-2{fill-rule:evenodd}.cls-2,.cls-4{fill:#2e5dad}</style></defs><title>Linz AG 4c</title><path class="cls-1" d="M307.88 83.86h105.68V68.41h-69.35l21.82-18.8h-29.2l-28.95 25.14v9.11z"/><path class="cls-2" d="M383.61 34.13l29.95-25.76V.05h-98.81v15.06h61.81l-21.87 19.02h28.92z"/><path class="cls-1" d="M0 83.81h94.38V68.16H23.04V0H0v83.81z"/><path class="cls-3" d="M112.25 0h22.82v83.81h-22.82z"/><path class="cls-1" d="M320.22 221.37V290h22.37v-65.26c0-15.06-6.65-18.82-24.37-18.82h-67.79c-18.39 0-24.37 4-24.37 19.81V290h22.82v-68.63h71.33z" transform="translate(-57.75 -205.92)"/><path class="cls-2" d="M759.77 205.92c16.33 0 23.25 3.2 24.24 15.47h-93.58v52.31h71.33v-17.85h-37.22V241h59.59v28.93c0 15.65-5.76 19.81-24.37 19.81H692c-18.61 0-24.37-4.16-24.37-19.81v-44.2c0-15.85 6-19.81 24.37-19.81h67.79z" transform="translate(-57.75 -205.92)"/><path class="cls-4" d="M615.91 271.3h-21.85l-9.68-15.3h22.22l-21.93-34.87-16.62 27.53c-2.73 4.42-11.49 18.27-14.18 22.6l-11.74 18.43h-22.81l55.6-83.81h21.93l56.49 83.81h-25.7z" transform="translate(-57.75 -205.92)"/></svg>