<svg xmlns="http://www.w3.org/2000/svg" viewBox="0 0 396.67 59.41"><g id="Ebene_2" data-name="Ebene 2"><g id="Ebene_1-2" data-name="Ebene 1"><path d="M68,11.47a24,24,0,1,0,24,24,24,24,0,0,0-24-24" style="fill:#96afc6"/><path d="M41,0a20.63,20.63,0,0,0-9.26,39.07A20.64,20.64,0,0,0,52.34,59.41H67.55a24.9,24.9,0,0,0,17.37-7L70.43,28.84a19.93,19.93,0,0,0-1.05-1.7l0,0h0c-.32-.47-.67-.92-1-1.36l-9.2-14.95,0-.09c-.33-.59-.68-1.16-1-1.7l0,0h0A20.61,20.61,0,0,0,41,0" style="fill:#cad4e1"/><path d="M38.39,29.1c-.32-.58-.67-1.14-1-1.69l0,0h0a20.46,20.46,0,1,0-16.86,32H57Z" style="fill:#fff"/><path d="M115.66,26.29h5.13l9,12.18V26.29h5.13V46.9h-5.13l-9-12.18V46.9h-5.13Z" style="fill:#fff"/><path d="M144.31,26.29h5.13V46.9h-5.13Z" style="fill:#fff"/><path d="M158.83,26.29H164L169.9,37l5.94-10.74H181V46.9h-5.13V35L169.9,45.7,164,35V46.9h-5.13Z" style="fill:#fff"/><path d="M190.39,26.29h10.77c3.81,0,6.45,2.19,6.45,5.19a5,5,0,0,1-2.85,4.59,5.8,5.8,0,0,1,3.78,5.25c0,3.3-2.91,5.58-7,5.58H190.39Zm9.51,8.16c1.41,0,2.43-.81,2.43-1.92s-1-1.89-2.43-1.89h-4.41v3.81Zm.78,8.1c1.5,0,2.58-.87,2.58-2.07s-1.08-2.07-2.58-2.07h-5.19v4.14Z" style="fill:#fff"/><path d="M216.73,37.87V26.29h5.13V37.63c0,2.91,1.86,5,4.44,5s4.47-2.07,4.47-5V26.29h5.1V37.87c0,5.52-3.93,9.39-9.57,9.39S216.73,43.39,216.73,37.87Z" style="fill:#fff"/><path d="M243.55,43.81l2.88-3.45A10.53,10.53,0,0,0,253.21,43c1.92,0,2.91-.78,2.91-1.89s-1-1.5-4-2.22c-4.41-1-7.68-2.19-7.68-6.33,0-4,3.18-6.6,7.89-6.6a12.46,12.46,0,0,1,8.34,2.82l-2.61,3.66a9.88,9.88,0,0,0-5.88-2.19c-1.65,0-2.58.78-2.58,1.8,0,1.26,1,1.68,4.05,2.34,4.62,1,7.59,2.31,7.59,6.18,0,4.14-3.15,6.72-8.25,6.72A14,14,0,0,1,243.55,43.81Z" style="fill:#fff"/><path d="M268.78,36.58c0-5.79,5.07-10.65,11.07-10.65A11.3,11.3,0,0,1,288,29.47l-3.75,3.33a5.75,5.75,0,0,0-4.44-2.22,6,6,0,0,0,0,12,5.81,5.81,0,0,0,4.47-2.22l3.72,3.3a11.21,11.21,0,0,1-8.19,3.57A11,11,0,0,1,268.78,36.58Z" style="fill:#fff"/><path d="M311,42.31V46.9h-15V26.29H301v16Z" style="fill:#fff"/><path d="M318.28,36.58c0-5.79,5.07-10.65,11.07-10.65s11.1,4.86,11.1,10.65a11.09,11.09,0,0,1-22.17,0Zm16.89,0a5.82,5.82,0,1,0-5.82,6A6,6,0,0,0,335.17,36.58Z" style="fill:#fff"/><path d="M348.73,37.87V26.29h5.13V37.63c0,2.91,1.86,5,4.44,5s4.47-2.07,4.47-5V26.29h5.1V37.87c0,5.52-3.93,9.39-9.57,9.39S348.73,43.39,348.73,37.87Z" style="fill:#fff"/><path d="M377.08,26.29h7.53c7.08,0,12.06,4.26,12.06,10.29s-5,10.32-12.06,10.32h-7.53Zm8.31,16c3.51,0,6-2.37,6-5.67s-2.52-5.64-6-5.64h-3.18V42.25Z" style="fill:#fff"/></g></g></svg>